<?xml version="1.0" encoding="UTF-8" standalone="no"?>
<!DOCTYPE svg PUBLIC "-//W3C//DTD SVG 1.1//EN"
 "http://www.w3.org/Graphics/SVG/1.1/DTD/svg11.dtd">
<!-- Generated by graphviz version 2.38.0 (20140413.2041)
 -->
<!-- Title: %3 Pages: 1 -->
<svg width="1783pt" height="277pt"
 viewBox="0.00 0.00 1783.14 277.00" xmlns="http://www.w3.org/2000/svg" xmlns:xlink="http://www.w3.org/1999/xlink">
<g id="graph0" class="graph" transform="scale(1 1) rotate(0) translate(4 273)">
<title>%3</title>
<polygon fill="white" stroke="none" points="-4,4 -4,-273 1779.14,-273 1779.14,4 -4,4"/>
<!-- gw -->
<g id="node1" class="node"><title>gw</title>
<ellipse fill="none" stroke="black" cx="596.345" cy="-251" rx="58.4896" ry="18"/>
<text text-anchor="middle" x="596.345" y="-247.3" font-family="Times New Roman,serif" font-size="14.00">ISP Gateway</text>
</g>
<!-- dsl -->
<g id="node2" class="node"><title>dsl</title>
<ellipse fill="none" stroke="black" cx="596.345" cy="-178" rx="58.4896" ry="18"/>
<text text-anchor="middle" x="596.345" y="-174.3" font-family="Times New Roman,serif" font-size="14.00">DSL Modem</text>
</g>
<!-- gw&#45;&#45;dsl -->
<g id="edge5" class="edge"><title>gw&#45;&#45;dsl</title>
<path fill="none" stroke="black" d="M596.345,-232.813C596.345,-221.65 596.345,-207.16 596.345,-196.029"/>
</g>
<!-- att -->
<g id="node3" class="node"><title>att</title>
<ellipse fill="none" stroke="black" cx="175.345" cy="-105" rx="65.7887" ry="18"/>
<text text-anchor="middle" x="175.345" y="-101.3" font-family="Times New Roman,serif" font-size="14.00">ATT Microcell</text>
</g>
<!-- dsl&#45;&#45;att -->
<g id="edge8" class="edge"><title>dsl&#45;&#45;att</title>
<path fill="none" stroke="black" d="M546.398,-168.577C466.897,-155.169 312.174,-129.076 229.882,-115.197"/>
</g>
<!-- dd -->
<g id="node4" class="node"><title>dd</title>
<ellipse fill="none" stroke="black" cx="596.345" cy="-105" rx="62.2891" ry="18"/>
<text text-anchor="middle" x="596.345" y="-101.3" font-family="Times New Roman,serif" font-size="14.00">dd&#45;wrt Router</text>
</g>
<!-- dsl&#45;&#45;dd -->
<g id="edge6" class="edge"><title>dsl&#45;&#45;dd</title>
<path fill="none" stroke="black" d="M596.345,-159.813C596.345,-148.65 596.345,-134.16 596.345,-123.029"/>
</g>
<!-- plc -->
<g id="node5" class="node"><title>plc</title>
<ellipse fill="none" stroke="black" cx="1409.35" cy="-105" rx="79.0865" ry="18"/>
<text text-anchor="middle" x="1409.35" y="-101.3" font-family="Times New Roman,serif" font-size="14.00">Power Line Carrier</text>
</g>
<!-- dsl&#45;&#45;plc -->
<g id="edge7" class="edge"><title>dsl&#45;&#45;plc</title>
<path fill="none" stroke="black" d="M651.906,-172.148C795.045,-159.647 1176.4,-126.344 1336.73,-112.342"/>
</g>
<!-- mk_cell -->
<g id="node11" class="node"><title>mk_cell</title>
<ellipse fill="none" stroke="black" cx="51.3454" cy="-18" rx="51.1914" ry="18"/>
<text text-anchor="middle" x="51.3454" y="-14.3" font-family="Times New Roman,serif" font-size="14.00">Mike&#39;s Cell</text>
</g>
<!-- att&#45;&#45;mk_cell -->
<g id="edge14" class="edge"><title>att&#45;&#45;mk_cell</title>
<path fill="none" stroke="black" d="M152.022,-88.0122C129.572,-72.6231 95.8578,-49.5125 73.7291,-34.3436"/>
</g>
<!-- tk_cell -->
<g id="node12" class="node"><title>tk_cell</title>
<ellipse fill="none" stroke="black" cx="175.345" cy="-18" rx="54.6905" ry="18"/>
<text text-anchor="middle" x="175.345" y="-14.3" font-family="Times New Roman,serif" font-size="14.00">Tracy&#39;s Cell</text>
</g>
<!-- att&#45;&#45;tk_cell -->
<g id="edge15" class="edge"><title>att&#45;&#45;tk_cell</title>
<path fill="none" stroke="black" d="M175.345,-86.799C175.345,-72.0519 175.345,-50.9152 175.345,-36.1754"/>
</g>
<!-- dd&#45;&#45;mk_cell -->
<g id="edge16" class="edge"><title>dd&#45;&#45;mk_cell</title>
<path fill="none" stroke="black" d="M537.156,-98.9629C445.203,-90.4081 262.845,-70.5205 111.345,-36 104.062,-34.3403 96.3455,-32.3403 88.9592,-30.304"/>
<text text-anchor="middle" x="293.845" y="-57.8" font-family="Times New Roman,serif" font-size="14.00">wifi</text>
</g>
<!-- dd&#45;&#45;tk_cell -->
<g id="edge17" class="edge"><title>dd&#45;&#45;tk_cell</title>
<path fill="none" stroke="black" d="M543.612,-95.2731C473.558,-83.3859 346.097,-60.7338 238.345,-36 230.948,-34.3019 223.107,-32.3282 215.562,-30.3394"/>
<text text-anchor="middle" x="405.845" y="-57.8" font-family="Times New Roman,serif" font-size="14.00">wifi</text>
</g>
<!-- mk_kindle_fire -->
<g id="node13" class="node"><title>mk_kindle_fire</title>
<ellipse fill="none" stroke="black" cx="510.345" cy="-18" rx="77.1866" ry="18"/>
<text text-anchor="middle" x="510.345" y="-14.3" font-family="Times New Roman,serif" font-size="14.00">Mike&#39;s Kindle Fire</text>
</g>
<!-- dd&#45;&#45;mk_kindle_fire -->
<g id="edge19" class="edge"><title>dd&#45;&#45;mk_kindle_fire</title>
<path fill="none" stroke="black" d="M579.764,-87.6111C564.633,-72.6561 542.376,-50.6583 527.17,-35.6286"/>
<text text-anchor="middle" x="569.845" y="-57.8" font-family="Times New Roman,serif" font-size="14.00">wifi</text>
</g>
<!-- mk_kindle -->
<g id="node14" class="node"><title>mk_kindle</title>
<ellipse fill="none" stroke="black" cx="683.345" cy="-18" rx="77.1866" ry="18"/>
<text text-anchor="middle" x="683.345" y="-14.3" font-family="Times New Roman,serif" font-size="14.00">Mike&#39;s Kindle Fire</text>
</g>
<!-- dd&#45;&#45;mk_kindle -->
<g id="edge18" class="edge"><title>dd&#45;&#45;mk_kindle</title>
<path fill="none" stroke="black" d="M613.12,-87.6111C628.427,-72.6561 650.942,-50.6583 666.326,-35.6286"/>
<text text-anchor="middle" x="655.845" y="-57.8" font-family="Times New Roman,serif" font-size="14.00">wifi</text>
</g>
<!-- tk_ipad -->
<g id="node15" class="node"><title>tk_ipad</title>
<ellipse fill="none" stroke="black" cx="836.345" cy="-18" rx="57.3905" ry="18"/>
<text text-anchor="middle" x="836.345" y="-14.3" font-family="Times New Roman,serif" font-size="14.00">Tracy&#39;s Ipad</text>
</g>
<!-- dd&#45;&#45;tk_ipad -->
<g id="edge3" class="edge"><title>dd&#45;&#45;tk_ipad</title>
<path fill="none" stroke="black" d="M634.109,-90.6252C679.388,-74.5892 754.763,-47.8939 799.589,-32.0179"/>
<text text-anchor="middle" x="741.845" y="-57.8" font-family="Times New Roman,serif" font-size="14.00">wifi</text>
</g>
<!-- green_ipad -->
<g id="node16" class="node"><title>green_ipad</title>
<ellipse fill="none" stroke="black" cx="963.345" cy="-18" rx="51.9908" ry="18"/>
<text text-anchor="middle" x="963.345" y="-14.3" font-family="Times New Roman,serif" font-size="14.00">Green Ipad</text>
</g>
<!-- dd&#45;&#45;green_ipad -->
<g id="edge4" class="edge"><title>dd&#45;&#45;green_ipad</title>
<path fill="none" stroke="black" d="M645.837,-93.9042C706.513,-81.3194 812.375,-58.69 902.345,-36 909.594,-34.1719 917.296,-32.1155 924.699,-30.0811"/>
<text text-anchor="middle" x="837.845" y="-57.8" font-family="Times New Roman,serif" font-size="14.00">wifi</text>
</g>
<!-- jt_kf -->
<g id="node17" class="node"><title>jt_kf</title>
<ellipse fill="none" stroke="black" cx="1111.35" cy="-18" rx="77.9862" ry="18"/>
<text text-anchor="middle" x="1111.35" y="-14.3" font-family="Times New Roman,serif" font-size="14.00">Tyler&#39;s Kindle Fire</text>
</g>
<!-- dd&#45;&#45;jt_kf -->
<g id="edge1" class="edge"><title>dd&#45;&#45;jt_kf</title>
<path fill="none" stroke="black" d="M652.659,-97.1833C704.615,-90.6848 783.845,-80.2456 852.345,-69 929.156,-56.3902 947.926,-50.7971 1024.35,-36 1033.86,-34.1569 1043.97,-32.1913 1053.79,-30.2753"/>
<text text-anchor="middle" x="943.845" y="-57.8" font-family="Times New Roman,serif" font-size="14.00">wifi</text>
</g>
<!-- jc_kf -->
<g id="node18" class="node"><title>jc_kf</title>
<ellipse fill="none" stroke="black" cx="331.345" cy="-18" rx="83.6854" ry="18"/>
<text text-anchor="middle" x="331.345" y="-14.3" font-family="Times New Roman,serif" font-size="14.00">Colton&#39;s Kindle Fire</text>
</g>
<!-- dd&#45;&#45;jc_kf -->
<g id="edge2" class="edge"><title>dd&#45;&#45;jc_kf</title>
<path fill="none" stroke="black" d="M556.098,-91.0903C507.593,-75.5321 426.344,-49.4711 375.964,-33.3117"/>
<text text-anchor="middle" x="490.845" y="-57.8" font-family="Times New Roman,serif" font-size="14.00">wifi</text>
</g>
<!-- xbox -->
<g id="node6" class="node"><title>xbox</title>
<ellipse fill="none" stroke="black" cx="1254.35" cy="-18" rx="46.5926" ry="18"/>
<text text-anchor="middle" x="1254.35" y="-14.3" font-family="Times New Roman,serif" font-size="14.00">xbox One</text>
</g>
<!-- plc&#45;&#45;xbox -->
<g id="edge9" class="edge"><title>plc&#45;&#45;xbox</title>
<path fill="none" stroke="black" d="M1380.55,-88.2114C1351.75,-72.4159 1307.85,-48.3423 1280.15,-33.1512"/>
</g>
<!-- dtv -->
<g id="node7" class="node"><title>dtv</title>
<ellipse fill="none" stroke="black" cx="1361.35" cy="-18" rx="42.4939" ry="18"/>
<text text-anchor="middle" x="1361.35" y="-14.3" font-family="Times New Roman,serif" font-size="14.00">DirecTV</text>
</g>
<!-- plc&#45;&#45;dtv -->
<g id="edge10" class="edge"><title>plc&#45;&#45;dtv</title>
<path fill="none" stroke="black" d="M1399.63,-86.799C1391.19,-71.8578 1379.05,-50.3578 1370.72,-35.597"/>
</g>
<!-- onkyo -->
<g id="node8" class="node"><title>onkyo</title>
<ellipse fill="none" stroke="black" cx="1457.35" cy="-18" rx="35.9954" ry="18"/>
<text text-anchor="middle" x="1457.35" y="-14.3" font-family="Times New Roman,serif" font-size="14.00">Onkyo</text>
</g>
<!-- plc&#45;&#45;onkyo -->
<g id="edge13" class="edge"><title>plc&#45;&#45;onkyo</title>
<path fill="none" stroke="black" d="M1419.06,-86.799C1427.5,-71.8578 1439.64,-50.3578 1447.97,-35.597"/>
</g>
<!-- tk -->
<g id="node9" class="node"><title>tk</title>
<ellipse fill="none" stroke="black" cx="1574.35" cy="-18" rx="63.8893" ry="18"/>
<text text-anchor="middle" x="1574.35" y="-14.3" font-family="Times New Roman,serif" font-size="14.00">Tracy&#39;s Office</text>
</g>
<!-- plc&#45;&#45;tk -->
<g id="edge11" class="edge"><title>plc&#45;&#45;tk</title>
<path fill="none" stroke="black" d="M1439.99,-88.2114C1470,-72.752 1515.41,-49.3629 1544.97,-34.1328"/>
</g>
<!-- mk -->
<g id="node10" class="node"><title>mk</title>
<ellipse fill="none" stroke="black" cx="1715.35" cy="-18" rx="59.5901" ry="18"/>
<text text-anchor="middle" x="1715.35" y="-14.3" font-family="Times New Roman,serif" font-size="14.00">Mike&#39;s Office</text>
</g>
<!-- plc&#45;&#45;mk -->
<g id="edge12" class="edge"><title>plc&#45;&#45;mk</title>
<path fill="none" stroke="black" d="M1457.49,-90.6252C1516.74,-74.1684 1616.4,-46.4856 1672.9,-30.791"/>
</g>
</g>
</svg>
